<svg xmlns="http://www.w3.org/2000/svg" xmlns:xlink="http://www.w3.org/1999/xlink" width="287.238" height="284.854" viewBox="0 0 287.238 284.854">
  <defs>
    <linearGradient id="linear-gradient" x1="1.003" y1="1.087" x2="0.095" y2="0.056" gradientUnits="objectBoundingBox">
      <stop offset="0" stop-color="#bc7dff"/>
      <stop offset="1" stop-color="#f794e5"/>
    </linearGradient>
    <linearGradient id="linear-gradient-2" x1="0.265" y1="0.928" x2="1.133" y2="-0.049" gradientUnits="objectBoundingBox">
      <stop offset="0" stop-color="#a737d5"/>
      <stop offset="1" stop-color="#ef497a"/>
    </linearGradient>
    <linearGradient id="linear-gradient-3" x1="3.589" y1="-3.229" x2="-0.184" y2="2.388" gradientUnits="objectBoundingBox">
      <stop offset="0" stop-color="#fdf53f"/>
      <stop offset="1" stop-color="#d93c65"/>
    </linearGradient>
    <linearGradient id="linear-gradient-4" x1="2.697" y1="-4.632" x2="0.613" y2="1.814" xlink:href="#linear-gradient-3"/>
    <linearGradient id="linear-gradient-5" x1="7.139" y1="-5.836" x2="3.252" y2="0.377" xlink:href="#linear-gradient-2"/>
    <linearGradient id="linear-gradient-6" x1="8.186" y1="-6.941" x2="4.3" y2="-0.728" xlink:href="#linear-gradient-2"/>
    <linearGradient id="linear-gradient-7" x1="9.121" y1="-6.905" x2="4.008" y2="-0.226" xlink:href="#linear-gradient-2"/>
    <linearGradient id="linear-gradient-8" x1="10.282" y1="-9.151" x2="6.396" y2="-2.937" xlink:href="#linear-gradient-2"/>
    <linearGradient id="linear-gradient-9" y1="0.5" x2="1.111" y2="0.5" gradientUnits="objectBoundingBox">
      <stop offset="0" stop-color="#993286"/>
      <stop offset="1" stop-color="#5b2099"/>
    </linearGradient>
    <linearGradient id="linear-gradient-10" y1="0.5" x2="1.09" y2="0.5" gradientUnits="objectBoundingBox">
      <stop offset="0" stop-color="#59189e"/>
      <stop offset="1" stop-color="#b5289b"/>
    </linearGradient>
    <linearGradient id="linear-gradient-11" x1="0.5" y1="0.941" x2="0.429" y2="-0.71" gradientUnits="objectBoundingBox">
      <stop offset="0" stop-color="#2b3582"/>
      <stop offset="1" stop-color="#150e42"/>
    </linearGradient>
    <linearGradient id="linear-gradient-12" x1="-1.224" y1="-0.158" x2="3.769" y2="2.235" xlink:href="#linear-gradient-2"/>
    <linearGradient id="linear-gradient-13" x1="-30.678" y1="-2.445" x2="159.68" y2="15.534" xlink:href="#linear-gradient-2"/>
    <linearGradient id="linear-gradient-14" x1="-0.187" y1="1.215" x2="0.831" y2="0.14" xlink:href="#linear-gradient-2"/>
    <linearGradient id="linear-gradient-15" x1="-0.136" y1="-1.398" x2="1.858" y2="4.552" xlink:href="#linear-gradient-3"/>
    <linearGradient id="linear-gradient-16" x1="-0.066" y1="-3.634" x2="1.015" y2="4.874" xlink:href="#linear-gradient-3"/>
    <linearGradient id="linear-gradient-17" x1="-0.897" y1="-0.736" x2="7.16" y2="6.41" xlink:href="#linear-gradient-2"/>
    <linearGradient id="linear-gradient-18" x1="-3.047" y1="-2.642" x2="5.01" y2="4.503" xlink:href="#linear-gradient-2"/>
    <linearGradient id="linear-gradient-19" x1="2.578" y1="-2.211" x2="-1.787" y2="3.403" xlink:href="#linear-gradient-2"/>
    <linearGradient id="linear-gradient-20" x1="3.377" y1="-3.239" x2="-0.988" y2="2.375" xlink:href="#linear-gradient-2"/>
    <linearGradient id="linear-gradient-21" x1="4.049" y1="-3.235" x2="-1.695" y2="2.799" xlink:href="#linear-gradient-2"/>
    <linearGradient id="linear-gradient-22" x1="4.975" y1="-5.294" x2="0.61" y2="0.32" xlink:href="#linear-gradient-2"/>
    <linearGradient id="linear-gradient-23" x1="1.519" y1="-0.775" x2="-1.484" y2="2.907" xlink:href="#linear-gradient-11"/>
    <linearGradient id="linear-gradient-24" x1="1.004" y1="-2.464" x2="-0.074" y2="4.125" xlink:href="#linear-gradient-11"/>
    <linearGradient id="linear-gradient-25" x1="0.727" y1="-2.869" x2="0.282" y2="3.71" gradientUnits="objectBoundingBox">
      <stop offset="0" stop-color="#ce1567"/>
      <stop offset="1" stop-color="#7a1dbc"/>
    </linearGradient>
    <linearGradient id="linear-gradient-26" x1="-0.301" y1="1.165" x2="2.009" y2="-0.739" gradientUnits="objectBoundingBox">
      <stop offset="0" stop-color="#53d8ff"/>
      <stop offset="1" stop-color="#3840f7"/>
    </linearGradient>
  </defs>
  <g id="Group_1382" data-name="Group 1382" transform="translate(-383 -8249)">
    <path id="Path_2061" data-name="Path 2061" d="M725.007,699.632c-51.926,54.8-131.688,38.586-143.478,35.981-14.853-3.282-50.191-11.09-76.562-41.919-40.373-47.2-36.3-120.965-5.116-170.7,9.073-14.471,39.6-57.474,96.941-66.825,3.351-.547,63.224-9.325,111.4,31.1a131.921,131.921,0,0,1,26.168,29.691C762.862,561.538,776.352,645.448,725.007,699.632Z" transform="translate(-89.408 7794)" opacity="0.3" fill="url(#linear-gradient)"/>
    <g id="Group_1360" data-name="Group 1360" transform="translate(479.737 8259.864)">
      <path id="Path_2062" data-name="Path 2062" d="M1438.675,565.649a4.819,4.819,0,0,1,6.34-3.576c18.314,6.53,81.477,28.1,135.944,35.283a4.456,4.456,0,0,1,3.829,5.1l-31.687,203.3a5.128,5.128,0,0,1-5.827,4.284c-22.824-3.417-116.752-17.827-149.135-28.274a4.063,4.063,0,0,1-2.728-4.684Z" transform="translate(-1395.329 -561.791)" fill="url(#linear-gradient-2)"/>
      <path id="Path_2063" data-name="Path 2063" d="M1464.479,621.055a4.637,4.637,0,0,1,6.1-3.441c17.624,6.284,78.409,27.042,130.825,33.954a4.289,4.289,0,0,1,3.685,4.91L1574.6,852.121a4.935,4.935,0,0,1-5.607,4.122c-21.965-3.288-112.355-17.155-143.52-27.21a3.91,3.91,0,0,1-2.625-4.508Z" transform="translate(-1419.973 -611.691)" fill="#fff" opacity="0.6"/>
      <path id="Path_2064" data-name="Path 2064" d="M1910.017,811.691a2.866,2.866,0,0,0-3.517,2.321l-6.815,41.886a2.7,2.7,0,0,0,2.029,3.055c7.636,1.836,31.451,7.464,45.115,9.609a3.009,3.009,0,0,0,3.389-2.259c1.9-7.725,7.233-30.247,7.455-40.085a3.4,3.4,0,0,0-2.585-3.369Z" transform="translate(-1848.344 -786.192)" fill="#fff" opacity="0.78"/>
      <circle id="Ellipse_11" data-name="Ellipse 11" cx="9.113" cy="9.113" r="9.113" transform="translate(68.872 52.045) rotate(-62.557)" fill="url(#linear-gradient-3)"/>
      <path id="Path_2065" data-name="Path 2065" d="M1989.247,1177.517l28.408,5.987a2.248,2.248,0,0,0,2.562-3c-1.617-4.284-5.5-10.9-14.293-12.488a20.238,20.238,0,0,0-17.8,5.487A2.349,2.349,0,0,0,1989.247,1177.517Z" transform="translate(-1927.149 -1106.035)" fill="url(#linear-gradient-4)"/>
      <g id="Group_1348" data-name="Group 1348" transform="translate(120.493 41.122)" opacity="0.6">
        <path id="Path_2066" data-name="Path 2066" d="M2630.225,980.256a1.5,1.5,0,0,0,1.87-1.059,1.646,1.646,0,0,0-1.359-1.77l-49.6-11.381a1.074,1.074,0,0,0-1.4,1.269l.1.727a2.507,2.507,0,0,0,1.833,1.98Z" transform="translate(-2579.722 -966.005)" fill="#fff"/>
      </g>
      <g id="Group_1349" data-name="Group 1349" transform="translate(118.863 48.855)" opacity="0.6">
        <path id="Path_2067" data-name="Path 2067" d="M2565.112,1042.055a1.074,1.074,0,0,0-1.4,1.269l.1.727a2.507,2.507,0,0,0,1.833,1.98l48.559,10.234a1.5,1.5,0,0,0,1.87-1.059,1.646,1.646,0,0,0-1.359-1.77Z" transform="translate(-2563.702 -1042.014)" fill="#fff"/>
      </g>
      <g id="Group_1350" data-name="Group 1350" transform="translate(117.21 56.7)" opacity="0.6">
        <path id="Path_2068" data-name="Path 2068" d="M2548.86,1119.169a1.074,1.074,0,0,0-1.4,1.269l.1.727a2.508,2.508,0,0,0,1.833,1.98l48.559,10.234a1.5,1.5,0,0,0,1.87-1.059,1.646,1.646,0,0,0-1.358-1.77Z" transform="translate(-2547.45 -1119.128)" fill="#fff"/>
      </g>
      <g id="Group_1351" data-name="Group 1351" transform="translate(47.491 81.424)" opacity="0.6">
        <path id="Path_2069" data-name="Path 2069" d="M1979.233,1390.533a1.438,1.438,0,0,0,1.819-1.07,1.7,1.7,0,0,0-1.414-1.765l-116.454-25.5c-.888-.194-1.281.311-.874,1.124l.7,1.4a3.894,3.894,0,0,0,2.359,1.819Z" transform="translate(-1862.15 -1362.154)" fill="#fff"/>
      </g>
      <g id="Group_1352" data-name="Group 1352" transform="translate(45.862 89.157)" opacity="0.6">
        <path id="Path_2070" data-name="Path 2070" d="M1847.165,1438.205c-.888-.195-1.281.311-.874,1.124l.7,1.4a3.892,3.892,0,0,0,2.359,1.819l113.863,24a1.438,1.438,0,0,0,1.819-1.07,1.7,1.7,0,0,0-1.413-1.765Z" transform="translate(-1846.13 -1438.164)" fill="#fff"/>
      </g>
      <path id="Path_2071" data-name="Path 2071" d="M1794.92,1564.245c2.85.376,8.123,1.384,11.023,1.952a2.678,2.678,0,0,1,2.164,2.549,43.644,43.644,0,0,1-1,10.845,2.378,2.378,0,0,1-2.828,1.783l-10.645-2.363a2.618,2.618,0,0,1-2.034-2.855l1.177-10.234A1.908,1.908,0,0,1,1794.92,1564.245Z" transform="translate(-1751.271 -1462.246)" fill="#fff" opacity="0.6"/>
      <g id="Group_1353" data-name="Group 1353" transform="translate(60.704 110.228)" opacity="0.6">
        <path id="Path_2072" data-name="Path 2072" d="M1993.833,1645.338a1.316,1.316,0,0,0-1.7,1.242l-.1,1.775a1.986,1.986,0,0,0,1.521,1.991l25.911,5.461a1.633,1.633,0,0,0,1.938-1.281l.087-.439a1.77,1.77,0,0,0-1.281-2.03Z" transform="translate(-1992.027 -1645.288)" fill="#fff"/>
      </g>
      <path id="Path_2073" data-name="Path 2073" d="M2366.248,1684.656c2.85.376,8.123,1.383,11.022,1.952a2.678,2.678,0,0,1,2.165,2.549,43.647,43.647,0,0,1-1,10.845,2.378,2.378,0,0,1-2.828,1.783l-10.645-2.364a2.618,2.618,0,0,1-2.034-2.855l1.177-10.234A1.908,1.908,0,0,1,2366.248,1684.656Z" transform="translate(-2264.475 -1570.408)" fill="#fff" opacity="0.6"/>
      <g id="Group_1354" data-name="Group 1354" transform="translate(118.828 122.478)" opacity="0.6">
        <path id="Path_2074" data-name="Path 2074" d="M2565.161,1765.75a1.316,1.316,0,0,0-1.7,1.242l-.1,1.775a1.986,1.986,0,0,0,1.521,1.991l25.912,5.461a1.633,1.633,0,0,0,1.938-1.281l.086-.439a1.77,1.77,0,0,0-1.281-2.03Z" transform="translate(-2563.355 -1765.7)" fill="#fff"/>
      </g>
      <g id="Group_1359" data-name="Group 1359" transform="translate(24.878 128.198)">
        <path id="Path_2075" data-name="Path 2075" d="M1783.1,1853.266l-.027-.006-9.825-2.169a2.7,2.7,0,0,1-2.226-2.82l.875-8.443a1.834,1.834,0,0,1,.708-1.26,2.209,2.209,0,0,1,1.663-.426h0c.841.118,2.031.265,3.289.42,2.651.327,5.949.734,7.777,1.1a2.812,2.812,0,0,1,2.35,2.509c.113,2-.688,5.584-1.592,9.387A2.486,2.486,0,0,1,1783.1,1853.266Zm-8.939-14.359a1.431,1.431,0,0,0-1.079.269,1.067,1.067,0,0,0-.416.731l-.876,8.443a1.935,1.935,0,0,0,1.625,1.986l9.825,2.169.02,0a1.714,1.714,0,0,0,2.083-1.134c.89-3.746,1.679-7.265,1.572-9.166a2.076,2.076,0,0,0-1.729-1.795c-1.8-.356-5.084-.761-7.722-1.087-1.262-.156-2.454-.3-3.3-.422Z" transform="translate(-1757.663 -1836.472)" fill="#fff"/>
        <path id="Path_2076" data-name="Path 2076" d="M1790.74,1856.3c2.1.295,6.689.786,8.827,1.208a1.948,1.948,0,0,1,1.63,1.72c.091,1.608-.6,4.629-1.264,7.413a1.674,1.674,0,0,1-2.047,1.133l-7.852-1.734a1.857,1.857,0,0,1-1.538-1.92l.7-6.747A1.306,1.306,0,0,1,1790.74,1856.3Z" transform="translate(-1773.368 -1852.79)" fill="#fff" opacity="0.6"/>
        <g id="Group_1355" data-name="Group 1355" transform="translate(35.232 10.507)" opacity="0.6">
          <path id="Path_2077" data-name="Path 2077" d="M1986.184,1927.832a2.5,2.5,0,0,0,2,2.323l91.253,18.421a1.889,1.889,0,0,0,.772-3.7l-91-19.614A2.5,2.5,0,0,0,1986.184,1927.832Z" transform="translate(-1986.181 -1925.207)" fill="#fff"/>
        </g>
        <path id="Path_2078" data-name="Path 2078" d="M1802.336,1826.82h0a1.544,1.544,0,0,1,1.965,1.006l1.208,3.89a.5.5,0,0,0,.874.145l7.076-9.708a.55.55,0,0,1,.979.449,21.634,21.634,0,0,1-9.265,13.434s-2.651-1.731-3.9-7.328A1.62,1.62,0,0,1,1802.336,1826.82Z" transform="translate(-1784.817 -1821.926)" fill="url(#linear-gradient-5)"/>
        <path id="Path_2079" data-name="Path 2079" d="M1739.383,2060.671l-.027-.006-9.825-2.169a2.7,2.7,0,0,1-2.227-2.82l.876-8.443a1.835,1.835,0,0,1,.708-1.26,2.211,2.211,0,0,1,1.663-.426h0c.841.118,2.03.265,3.289.42,2.651.327,5.949.734,7.778,1.1l.04.008a2.806,2.806,0,0,1,2.311,2.5c.113,2-.688,5.584-1.592,9.387A2.486,2.486,0,0,1,1739.383,2060.671Zm-8.939-14.359a1.433,1.433,0,0,0-1.08.269,1.067,1.067,0,0,0-.416.732l-.875,8.443a1.935,1.935,0,0,0,1.625,1.986l9.825,2.169.02,0a1.714,1.714,0,0,0,2.083-1.134c.89-3.746,1.679-7.265,1.572-9.166a2.065,2.065,0,0,0-1.729-1.795c-1.8-.356-5.084-.761-7.722-1.086-1.262-.156-2.454-.3-3.3-.422Z" transform="translate(-1718.398 -2022.777)" fill="#fff"/>
        <path id="Path_2080" data-name="Path 2080" d="M1747.027,2063.708c2.1.294,6.689.785,8.827,1.208a1.947,1.947,0,0,1,1.629,1.72c.091,1.608-.6,4.629-1.264,7.413a1.674,1.674,0,0,1-2.047,1.133l-7.851-1.734a1.858,1.858,0,0,1-1.539-1.92l.7-6.747A1.305,1.305,0,0,1,1747.027,2063.708Z" transform="translate(-1734.102 -2039.096)" fill="#fff" opacity="0.6"/>
        <g id="Group_1356" data-name="Group 1356" transform="translate(30.785 31.607)" opacity="0.6">
          <path id="Path_2081" data-name="Path 2081" d="M1942.472,2135.237a2.5,2.5,0,0,0,2,2.323l91.253,18.421a1.889,1.889,0,0,0,.772-3.7l-91-19.614A2.5,2.5,0,0,0,1942.472,2135.237Z" transform="translate(-1942.469 -2132.613)" fill="#fff"/>
        </g>
        <path id="Path_2082" data-name="Path 2082" d="M1758.624,2034.226h0a1.544,1.544,0,0,1,1.965,1.006l1.208,3.89a.5.5,0,0,0,.874.145l7.076-9.708a.55.55,0,0,1,.979.449,21.636,21.636,0,0,1-9.265,13.435s-2.651-1.731-3.9-7.328A1.62,1.62,0,0,1,1758.624,2034.226Z" transform="translate(-1745.552 -2008.231)" fill="url(#linear-gradient-6)"/>
        <path id="Path_2083" data-name="Path 2083" d="M1695.67,2268.077l-.027-.006-9.825-2.169a2.7,2.7,0,0,1-2.227-2.82l.875-8.442a1.835,1.835,0,0,1,.709-1.261,2.209,2.209,0,0,1,1.663-.426h0c.841.118,2.03.265,3.289.42,2.651.327,5.949.734,7.777,1.1l.04.008a2.806,2.806,0,0,1,2.311,2.5c.113,2-.688,5.584-1.592,9.387A2.487,2.487,0,0,1,1695.67,2268.077Zm-8.939-14.359a1.428,1.428,0,0,0-1.079.269,1.066,1.066,0,0,0-.416.732l-.875,8.443a1.935,1.935,0,0,0,1.625,1.986l9.825,2.169.02,0a1.714,1.714,0,0,0,2.083-1.135c.89-3.745,1.679-7.265,1.572-9.165a2.061,2.061,0,0,0-1.729-1.795c-1.8-.356-5.084-.761-7.722-1.087-1.262-.156-2.454-.3-3.3-.422Z" transform="translate(-1679.132 -2209.082)" fill="#fff"/>
        <path id="Path_2084" data-name="Path 2084" d="M1703.315,2271.113c2.1.294,6.689.786,8.827,1.208a1.948,1.948,0,0,1,1.63,1.72c.091,1.608-.6,4.629-1.264,7.413a1.674,1.674,0,0,1-2.047,1.133l-7.852-1.734a1.858,1.858,0,0,1-1.539-1.92l.7-6.747A1.306,1.306,0,0,1,1703.315,2271.113Z" transform="translate(-1694.837 -2225.401)" fill="#fff" opacity="0.6"/>
        <g id="Group_1357" data-name="Group 1357" transform="translate(26.338 52.707)" opacity="0.6">
          <path id="Path_2085" data-name="Path 2085" d="M1898.759,2342.643a2.5,2.5,0,0,0,2,2.323l91.253,18.421a1.889,1.889,0,0,0,.772-3.7l-91-19.614A2.5,2.5,0,0,0,1898.759,2342.643Z" transform="translate(-1898.756 -2340.018)" fill="#fff"/>
        </g>
        <path id="Path_2086" data-name="Path 2086" d="M1714.912,2241.631h0a1.544,1.544,0,0,1,1.965,1.006l1.208,3.89a.5.5,0,0,0,.874.145l7.076-9.708a.549.549,0,0,1,.979.449,21.634,21.634,0,0,1-9.265,13.435s-2.651-1.731-3.9-7.328A1.619,1.619,0,0,1,1714.912,2241.631Z" transform="translate(-1706.287 -2194.536)" fill="url(#linear-gradient-7)"/>
        <path id="Path_2087" data-name="Path 2087" d="M1651.958,2475.481l-.027-.006-9.825-2.169a2.7,2.7,0,0,1-2.226-2.82l.875-8.443a1.835,1.835,0,0,1,.708-1.261,2.209,2.209,0,0,1,1.663-.426h0c.841.118,2.03.265,3.289.42,2.651.327,5.949.734,7.777,1.1l.04.008a2.805,2.805,0,0,1,2.311,2.5c.113,2-.688,5.584-1.592,9.387A2.486,2.486,0,0,1,1651.958,2475.481Zm-8.939-14.359a1.431,1.431,0,0,0-1.08.269,1.068,1.068,0,0,0-.416.732l-.875,8.443a1.935,1.935,0,0,0,1.625,1.986l9.825,2.17.02,0a1.714,1.714,0,0,0,2.083-1.134c.89-3.746,1.679-7.265,1.572-9.166a2.059,2.059,0,0,0-1.729-1.795c-1.8-.356-5.084-.761-7.722-1.086-1.262-.156-2.454-.3-3.3-.422Z" transform="translate(-1639.868 -2395.387)" fill="#fff"/>
        <path id="Path_2088" data-name="Path 2088" d="M1659.6,2478.519c2.1.294,6.689.786,8.827,1.208a1.947,1.947,0,0,1,1.63,1.72c.091,1.608-.6,4.629-1.264,7.413a1.674,1.674,0,0,1-2.047,1.133l-7.852-1.734a1.858,1.858,0,0,1-1.539-1.92l.7-6.747A1.306,1.306,0,0,1,1659.6,2478.519Z" transform="translate(-1655.572 -2411.707)" fill="#fff" opacity="0.6"/>
        <g id="Group_1358" data-name="Group 1358" transform="translate(21.891 73.808)" opacity="0.6">
          <path id="Path_2089" data-name="Path 2089" d="M1855.047,2550.048h0a2.5,2.5,0,0,0,2,2.323l91.253,18.421a1.889,1.889,0,0,0,.772-3.7l-91-19.614A2.5,2.5,0,0,0,1855.047,2550.048Z" transform="translate(-1855.044 -2547.423)" fill="#fff"/>
        </g>
        <path id="Path_2090" data-name="Path 2090" d="M1671.2,2449.037h0a1.544,1.544,0,0,1,1.965,1.007l1.208,3.89a.5.5,0,0,0,.874.145l7.076-9.707a.55.55,0,0,1,.979.449,21.635,21.635,0,0,1-9.265,13.435s-2.651-1.731-3.9-7.328A1.62,1.62,0,0,1,1671.2,2449.037Z" transform="translate(-1667.022 -2380.842)" fill="url(#linear-gradient-8)"/>
      </g>
    </g>
    <g id="Group_1363" data-name="Group 1363" transform="translate(383 8375.029)">
      <g id="Group_1361" data-name="Group 1361" transform="translate(6.039 0)">
        <path id="Path_2091" data-name="Path 2091" d="M559.632,1782.261a263.711,263.711,0,0,0,5.579,32.846h1.6a179.226,179.226,0,0,1-5.442-51.509c.9-20.769,5.988-45.986-3.5-58.032-7.894-10.026-41.392-11.524-52.407-11.745a1.625,1.625,0,0,0-1.308,2.636c4.223,5.313,13.066,17.619,13.836,28.365,1.016,14.164,12.023,25.28,22.961,29.908S557.786,1762.887,559.632,1782.261Z" transform="translate(-503.804 -1693.82)" fill="url(#linear-gradient-9)"/>
        <path id="Path_2092" data-name="Path 2092" d="M652.865,1779.817a52.816,52.816,0,0,1,18.791,9.044,41.341,41.341,0,0,1,7.55,7.352,35.748,35.748,0,0,1,5.261,9.172l.469,1.243c.154.415.268.843.4,1.265s.266.849.377,1.268l.335,1.259q.675,2.516,1.317,5.041,1.282,5.05,2.4,10.14c1.5,6.784,2.79,13.614,3.66,20.519a.3.3,0,0,1-.6.093l0-.009c-.618-3.4-1.3-6.8-2.051-10.178q-1.1-5.076-2.318-10.124l-1.232-5.044-1.289-5.03q-.643-2.516-1.328-5.02l-.338-1.254c-.112-.418-.246-.815-.368-1.223s-.235-.816-.38-1.215l-.443-1.193a35.487,35.487,0,0,0-4.987-8.848,39.236,39.236,0,0,0-3.374-3.835l-.449-.456-.467-.438c-.312-.291-.618-.59-.937-.874-.646-.56-1.285-1.129-1.961-1.654a52.965,52.965,0,0,0-8.633-5.58,55.074,55.074,0,0,0-9.527-3.947l-.015,0a.243.243,0,0,1,.13-.467Z" transform="translate(-637.429 -1771.062)" fill="#432169"/>
      </g>
      <g id="Group_1362" data-name="Group 1362" transform="translate(0 66.272)">
        <path id="Path_2093" data-name="Path 2093" d="M506.626,2380.271c5.729,8.411,4.993,13.118,5.169,17.1.031.708.07,1.708.152,2.89h1.564a34.274,34.274,0,0,1-.627-4.863c-.557-11.009-3.041-29.8-12.534-41.039s-19.89-12.266-32.99-2.047c-10.917,8.515-17.727,12.813-21.72,13.611a1.509,1.509,0,0,0-1.012,2.2c2.561,4.717,9.8,15.552,21.962,14.789C482.1,2381.943,500.9,2371.86,506.626,2380.271Z" transform="translate(-444.443 -2345.25)" fill="url(#linear-gradient-10)"/>
        <path id="Path_2094" data-name="Path 2094" d="M712.657,2475.435a31.111,31.111,0,0,1,2.7-2.263c.938-.708,1.9-1.382,2.91-2a29.186,29.186,0,0,1,6.424-3.022,20.2,20.2,0,0,1,3.514-.79,15,15,0,0,1,3.645-.014c.3.049.609.078.909.146s.606.127.9.21l1.71.531,1.673.65,1.622.779a20.418,20.418,0,0,1,5.648,4.417,25.382,25.382,0,0,1,3.912,5.948l.389.8c.134.264.231.544.348.814.221.547.458,1.088.664,1.639l.576,1.669c.2.552.334,1.126.5,1.689a61.54,61.54,0,0,1,1.485,6.859.236.236,0,0,1-.462.1l0-.008c-.546-2.256-1.072-4.516-1.823-6.7-.341-1.1-.773-2.173-1.175-3.251-.217-.533-.463-1.051-.693-1.577-.121-.26-.223-.53-.36-.781l-.4-.76a25.837,25.837,0,0,0-3.875-5.59,19.883,19.883,0,0,0-5.351-4.083l-1.529-.725-1.585-.606-1.628-.5c-.27-.077-.535-.127-.8-.193s-.543-.089-.813-.136a13.667,13.667,0,0,0-3.32-.008,19.03,19.03,0,0,0-3.3.67,31.736,31.736,0,0,0-6.291,2.68c-1,.559-2,1.142-2.965,1.774s-1.914,1.3-2.821,2l-.006,0a.245.245,0,0,1-.319-.371Z" transform="translate(-685.302 -2454.832)" fill="#442169"/>
      </g>
    </g>
    <g id="Group_1377" data-name="Group 1377" transform="translate(445.506 8266.813)">
      <path id="Path_2095" data-name="Path 2095" d="M1058.85,932.136a15.605,15.605,0,0,1,15.605-15.6h132.706a13.748,13.748,0,0,1,13.73,13.049l9.8,192.4a10.138,10.138,0,0,1-9.941,10.652l-152.1,2.764a9.624,9.624,0,0,1-9.8-9.622Z" transform="translate(-1058.85 -887.392)" fill="url(#linear-gradient-11)"/>
      <path id="Path_2096" data-name="Path 2096" d="M1132.233,2711.393h0l-17.019-.22a10.5,10.5,0,0,1-10.32-10.455v-25.7a.363.363,0,0,1,.727,0v25.7a9.767,9.767,0,0,0,9.6,9.728l17.019.22a.363.363,0,0,1,0,.727Z" transform="translate(-1100.205 -2466.659)" fill="url(#linear-gradient-12)"/>
      <path id="Path_2097" data-name="Path 2097" d="M1105.252,2560.407a.363.363,0,0,1-.363-.364v-4.161a.363.363,0,1,1,.727,0v4.161A.363.363,0,0,1,1105.252,2560.407Z" transform="translate(-1100.205 -2359.639)" fill="url(#linear-gradient-13)"/>
      <g id="Group_1376" data-name="Group 1376" transform="translate(10.872 27.538)">
        <path id="Path_2098" data-name="Path 2098" d="M1165.717,905.351a4.533,4.533,0,0,1,5.141-4.521c18.122,2.458,80.44,10.058,131.964,6.1a4.192,4.192,0,0,1,4.514,3.953l10.271,193.257a4.823,4.823,0,0,1-4.531,5.073c-21.67,1.282-110.913,6.24-142.745,2.906a3.822,3.822,0,0,1-3.419-3.782Z" transform="translate(-1165.717 -900.788)" fill="url(#linear-gradient-14)"/>
        <path id="Path_2099" data-name="Path 2099" d="M1186.7,954.472a4.362,4.362,0,0,1,4.948-4.351c17.44,2.365,77.411,9.68,126.994,5.873a4.034,4.034,0,0,1,4.344,3.8l9.884,185.98a4.642,4.642,0,0,1-4.361,4.882c-20.854,1.234-106.737,6-137.37,2.8a3.678,3.678,0,0,1-3.291-3.64Z" transform="translate(-1184.565 -945.067)" fill="#fff" opacity="0.6"/>
        <path id="Path_2100" data-name="Path 2100" d="M1345.367,1109.287l1.852,39.872a2.535,2.535,0,0,0,2.46,2.418c7.384.208,30.394.77,43.387.092a2.83,2.83,0,0,0,2.681-2.736c.248-7.477.79-29.241-.914-38.339a3.2,3.2,0,0,0-3.033-2.6l-43.647-1.526A2.7,2.7,0,0,0,1345.367,1109.287Z" transform="translate(-1327.088 -1085.542)" fill="#fff" opacity="0.78"/>
        <circle id="Ellipse_12" data-name="Ellipse 12" cx="8.571" cy="8.571" r="8.571" transform="matrix(0.23, -0.973, 0.973, 0.23, 33.083, 44.373)" fill="url(#linear-gradient-15)"/>
        <path id="Path_2101" data-name="Path 2101" d="M1444.755,1415.825h27.307a2.114,2.114,0,0,0,1.776-3.259c-2.319-3.629-7.172-8.961-15.577-8.721a19.036,19.036,0,0,0-15.315,8.5A2.21,2.21,0,0,0,1444.755,1415.825Z" transform="translate(-1414.38 -1352.66)" fill="url(#linear-gradient-16)"/>
        <g id="Group_1364" data-name="Group 1364" transform="translate(78.415 23.659)" opacity="0.6">
          <path id="Path_2102" data-name="Path 2102" d="M1985.57,1136.906a1.412,1.412,0,0,0,1.516-1.338,1.548,1.548,0,0,0-1.594-1.365l-47.862-.853a1.01,1.01,0,0,0-1.038,1.439l.229.65a2.358,2.358,0,0,0,2.072,1.467Z" transform="translate(-1936.509 -1133.35)" fill="#fff"/>
        </g>
        <g id="Group_1365" data-name="Group 1365" transform="translate(78.415 31.092)" opacity="0.6">
          <path id="Path_2103" data-name="Path 2103" d="M1937.63,1206.415a1.01,1.01,0,0,0-1.038,1.439l.229.65a2.358,2.358,0,0,0,2.072,1.467h46.677a1.412,1.412,0,0,0,1.516-1.338,1.548,1.548,0,0,0-1.594-1.365Z" transform="translate(-1936.509 -1206.414)" fill="#fff"/>
        </g>
        <g id="Group_1366" data-name="Group 1366" transform="translate(78.415 38.634)" opacity="0.6">
          <path id="Path_2104" data-name="Path 2104" d="M1937.63,1280.541a1.01,1.01,0,0,0-1.038,1.439l.229.65a2.358,2.358,0,0,0,2.072,1.467h46.677a1.412,1.412,0,0,0,1.516-1.338,1.548,1.548,0,0,0-1.594-1.365Z" transform="translate(-1936.509 -1280.54)" fill="#fff"/>
        </g>
        <g id="Group_1367" data-name="Group 1367" transform="translate(18.959 74.986)" opacity="0.6">
          <path id="Path_2105" data-name="Path 2105" d="M1465.246,1641.439a1.352,1.352,0,0,0,1.467-1.338,1.6,1.6,0,0,0-1.643-1.35l-112.128-.884c-.855-.007-1.119.535-.586,1.2l.916,1.151a3.661,3.661,0,0,0,2.523,1.216Z" transform="translate(-1352.079 -1637.867)" fill="#fff"/>
        </g>
        <g id="Group_1368" data-name="Group 1368" transform="translate(18.959 82.419)" opacity="0.6">
          <path id="Path_2106" data-name="Path 2106" d="M1352.941,1710.932c-.855-.007-1.119.535-.586,1.2l.916,1.151a3.661,3.661,0,0,0,2.523,1.216h109.451a1.352,1.352,0,0,0,1.467-1.338,1.6,1.6,0,0,0-1.643-1.35Z" transform="translate(-1352.079 -1710.932)" fill="#fff"/>
        </g>
        <path id="Path_2107" data-name="Path 2107" d="M1340.969,1829.909c2.7-.207,7.745-.3,10.524-.341a2.519,2.519,0,0,1,2.486,1.926,41.043,41.043,0,0,1,1.183,10.175,2.237,2.237,0,0,1-2.257,2.19l-10.255-.11a2.463,2.463,0,0,1-2.426-2.234l-.9-9.648A1.8,1.8,0,0,1,1340.969,1829.909Z" transform="translate(-1321.654 -1735.079)" fill="url(#linear-gradient-17)"/>
        <g id="Group_1369" data-name="Group 1369" transform="translate(36.941 98.79)" opacity="0.6">
          <path id="Path_2108" data-name="Path 2108" d="M1530.169,1871.855a1.237,1.237,0,0,0-1.323,1.473l.248,1.654a1.868,1.868,0,0,0,1.786,1.538h24.907a1.536,1.536,0,0,0,1.536-1.555l-.005-.421a1.665,1.665,0,0,0-1.573-1.62Z" transform="translate(-1528.829 -1871.853)" fill="#fff"/>
        </g>
        <path id="Path_2109" data-name="Path 2109" d="M1890.16,1829.909c2.7-.207,7.745-.3,10.524-.341a2.519,2.519,0,0,1,2.487,1.926,41.054,41.054,0,0,1,1.183,10.175,2.236,2.236,0,0,1-2.257,2.19l-10.256-.11a2.463,2.463,0,0,1-2.425-2.234l-.9-9.648A1.794,1.794,0,0,1,1890.16,1829.909Z" transform="translate(-1814.974 -1735.079)" fill="url(#linear-gradient-18)"/>
        <g id="Group_1370" data-name="Group 1370" transform="translate(92.812 98.79)" opacity="0.6">
          <path id="Path_2110" data-name="Path 2110" d="M2079.36,1871.855a1.237,1.237,0,0,0-1.323,1.473l.249,1.654a1.868,1.868,0,0,0,1.786,1.538h24.907a1.536,1.536,0,0,0,1.536-1.555l-.005-.421a1.665,1.665,0,0,0-1.573-1.62Z" transform="translate(-2078.02 -1871.853)" fill="#fff"/>
        </g>
        <g id="Group_1375" data-name="Group 1375" transform="translate(20.858 116.933)">
          <path id="Path_2111" data-name="Path 2111" d="M1383.674,2094.77h-.026l-9.464-.091a2.544,2.544,0,0,1-2.6-2.164l-.832-7.94a1.726,1.726,0,0,1,.408-1.3,2.078,2.078,0,0,1,1.448-.715h0c.8-.054,1.92-.15,3.109-.251,2.5-.213,5.618-.478,7.371-.5a2.645,2.645,0,0,1,2.65,1.854c.493,1.823.45,5.273.356,8.948A2.338,2.338,0,0,1,1383.674,2094.77Zm-11.012-11.482a1.347,1.347,0,0,0-.941.457,1,1,0,0,0-.241.754l.832,7.94a1.82,1.82,0,0,0,1.881,1.513l9.463.091h.019a1.612,1.612,0,0,0,1.7-1.448c.093-3.62.137-7.012-.331-8.741a1.953,1.953,0,0,0-1.939-1.316c-1.727.022-4.827.286-7.318.5-1.192.1-2.318.2-3.121.252Z" transform="translate(-1370.747 -2078.595)" fill="#fff"/>
          <path id="Path_2112" data-name="Path 2112" d="M1388.8,2099.082c1.988-.136,6.309-.574,8.358-.6a1.833,1.833,0,0,1,1.834,1.267,32.172,32.172,0,0,1,.275,7.068,1.574,1.574,0,0,1-1.664,1.44l-7.563-.072a1.748,1.748,0,0,1-1.789-1.469l-.665-6.345A1.228,1.228,0,0,1,1388.8,2099.082Z" transform="translate(-1385.87 -2093.569)" fill="#fff" opacity="0.6"/>
          <g id="Group_1371" data-name="Group 1371" transform="translate(21.16 7.954)" opacity="0.6">
            <path id="Path_2113" data-name="Path 2113" d="M1578.817,2131.324a2.35,2.35,0,0,0,2.292,1.751l87.56-.747a1.777,1.777,0,0,0-.007-3.553l-87.562-.4A2.35,2.35,0,0,0,1578.817,2131.324Z" transform="translate(-1578.738 -2128.375)" fill="#fff"/>
          </g>
          <path id="Path_2114" data-name="Path 2114" d="M1396.914,2056.951h0a1.452,1.452,0,0,1,2,.545l1.866,3.346a.467.467,0,0,0,.833-.036l4.629-10.307a.517.517,0,0,1,.988.223,20.349,20.349,0,0,1-5.921,14.162s-2.776-1.079-5.012-5.988A1.523,1.523,0,0,1,1396.914,2056.951Z" transform="translate(-1393.579 -2050.193)" fill="url(#linear-gradient-19)"/>
          <path id="Path_2115" data-name="Path 2115" d="M1383.674,2294.136h-.026l-9.464-.091a2.544,2.544,0,0,1-2.6-2.164l-.832-7.94a1.726,1.726,0,0,1,.408-1.3,2.078,2.078,0,0,1,1.448-.715h0c.8-.054,1.92-.15,3.109-.251,2.5-.213,5.618-.478,7.371-.5h.038a2.639,2.639,0,0,1,2.612,1.854c.493,1.823.45,5.273.356,8.949A2.339,2.339,0,0,1,1383.674,2294.136Zm-11.012-11.481a1.345,1.345,0,0,0-.941.457,1.006,1.006,0,0,0-.241.754l.832,7.94a1.821,1.821,0,0,0,1.881,1.513l9.463.091h.019a1.612,1.612,0,0,0,1.7-1.448c.093-3.62.137-7.012-.331-8.741a1.942,1.942,0,0,0-1.939-1.316c-1.727.022-4.827.285-7.318.5-1.192.1-2.318.2-3.121.252Z" transform="translate(-1370.747 -2257.678)" fill="#fff"/>
          <path id="Path_2116" data-name="Path 2116" d="M1388.8,2298.452c1.988-.136,6.309-.575,8.358-.6a1.832,1.832,0,0,1,1.834,1.267,32.169,32.169,0,0,1,.275,7.068,1.574,1.574,0,0,1-1.664,1.44l-7.563-.073a1.747,1.747,0,0,1-1.789-1.469l-.665-6.345A1.228,1.228,0,0,1,1388.8,2298.452Z" transform="translate(-1385.87 -2272.656)" fill="#fff" opacity="0.6"/>
          <g id="Group_1372" data-name="Group 1372" transform="translate(21.16 28.236)" opacity="0.6">
            <path id="Path_2117" data-name="Path 2117" d="M1578.817,2330.693a2.349,2.349,0,0,0,2.292,1.75l87.56-.747a1.777,1.777,0,0,0-.007-3.553l-87.562-.4A2.35,2.35,0,0,0,1578.817,2330.693Z" transform="translate(-1578.738 -2327.744)" fill="#fff"/>
          </g>
          <path id="Path_2118" data-name="Path 2118" d="M1396.914,2256.32h0a1.452,1.452,0,0,1,2,.545l1.866,3.346a.467.467,0,0,0,.833-.036l4.629-10.307a.517.517,0,0,1,.988.224,20.348,20.348,0,0,1-5.921,14.161s-2.776-1.079-5.012-5.988A1.523,1.523,0,0,1,1396.914,2256.32Z" transform="translate(-1393.579 -2229.28)" fill="url(#linear-gradient-20)"/>
          <path id="Path_2119" data-name="Path 2119" d="M1383.674,2493.5h-.026l-9.464-.091a2.543,2.543,0,0,1-2.6-2.163l-.832-7.94a1.727,1.727,0,0,1,.408-1.3,2.079,2.079,0,0,1,1.448-.715h0c.8-.054,1.92-.15,3.109-.251,2.5-.213,5.618-.478,7.371-.5h.038a2.639,2.639,0,0,1,2.612,1.854c.493,1.823.45,5.273.356,8.948A2.339,2.339,0,0,1,1383.674,2493.5Zm-11.012-11.482a1.347,1.347,0,0,0-.941.457,1.006,1.006,0,0,0-.241.754l.832,7.94a1.819,1.819,0,0,0,1.88,1.512l9.464.091h.019a1.612,1.612,0,0,0,1.7-1.448c.093-3.62.137-7.012-.331-8.741a1.939,1.939,0,0,0-1.939-1.316c-1.727.022-4.827.286-7.318.5-1.192.1-2.318.2-3.121.252Z" transform="translate(-1370.747 -2436.764)" fill="#fff"/>
          <path id="Path_2120" data-name="Path 2120" d="M1388.8,2497.821c1.988-.136,6.309-.574,8.358-.6a1.832,1.832,0,0,1,1.834,1.266,32.175,32.175,0,0,1,.275,7.068,1.575,1.575,0,0,1-1.664,1.44l-7.563-.073a1.747,1.747,0,0,1-1.789-1.469l-.665-6.345A1.229,1.229,0,0,1,1388.8,2497.821Z" transform="translate(-1385.87 -2451.743)" fill="#fff" opacity="0.6"/>
          <g id="Group_1373" data-name="Group 1373" transform="translate(21.16 48.519)" opacity="0.6">
            <path id="Path_2121" data-name="Path 2121" d="M1578.817,2530.062a2.349,2.349,0,0,0,2.292,1.75l87.56-.747a1.777,1.777,0,0,0-.007-3.553l-87.562-.4A2.35,2.35,0,0,0,1578.817,2530.062Z" transform="translate(-1578.738 -2527.113)" fill="#fff"/>
          </g>
          <path id="Path_2122" data-name="Path 2122" d="M1396.914,2455.689h0a1.452,1.452,0,0,1,2,.545l1.866,3.346a.467.467,0,0,0,.833-.036l4.629-10.307a.517.517,0,0,1,.988.224,20.349,20.349,0,0,1-5.921,14.162s-2.776-1.079-5.012-5.988A1.524,1.524,0,0,1,1396.914,2455.689Z" transform="translate(-1393.579 -2408.366)" fill="url(#linear-gradient-21)"/>
          <path id="Path_2123" data-name="Path 2123" d="M1383.674,2692.874h-.026l-9.464-.091a2.543,2.543,0,0,1-2.6-2.163l-.832-7.94a1.726,1.726,0,0,1,.408-1.3,2.078,2.078,0,0,1,1.448-.715h0c.8-.054,1.92-.15,3.109-.251,2.5-.213,5.618-.479,7.371-.5h.038a2.639,2.639,0,0,1,2.612,1.854c.493,1.823.45,5.273.356,8.948A2.339,2.339,0,0,1,1383.674,2692.874Zm-11.012-11.482a1.347,1.347,0,0,0-.941.457,1.006,1.006,0,0,0-.241.754l.832,7.94a1.819,1.819,0,0,0,1.88,1.512l9.464.091h.019a1.612,1.612,0,0,0,1.7-1.448c.093-3.62.137-7.012-.331-8.74a1.935,1.935,0,0,0-1.939-1.316c-1.727.021-4.827.285-7.318.5-1.192.1-2.318.2-3.121.252Z" transform="translate(-1370.747 -2615.851)" fill="#fff"/>
          <path id="Path_2124" data-name="Path 2124" d="M1388.8,2697.191c1.988-.136,6.309-.575,8.358-.6a1.832,1.832,0,0,1,1.834,1.267,32.172,32.172,0,0,1,.275,7.068,1.575,1.575,0,0,1-1.664,1.44l-7.563-.073a1.747,1.747,0,0,1-1.789-1.469l-.665-6.345A1.229,1.229,0,0,1,1388.8,2697.191Z" transform="translate(-1385.87 -2630.83)" fill="#fff" opacity="0.6"/>
          <g id="Group_1374" data-name="Group 1374" transform="translate(21.16 68.801)" opacity="0.6">
            <path id="Path_2125" data-name="Path 2125" d="M1578.817,2729.432h0a2.35,2.35,0,0,0,2.292,1.75l87.56-.747a1.777,1.777,0,0,0-.007-3.554l-87.562-.4A2.35,2.35,0,0,0,1578.817,2729.432Z" transform="translate(-1578.738 -2726.482)" fill="#fff"/>
          </g>
          <path id="Path_2126" data-name="Path 2126" d="M1396.914,2655.059h0a1.453,1.453,0,0,1,2,.545l1.866,3.346a.467.467,0,0,0,.833-.036l4.629-10.307a.517.517,0,0,1,.988.223,20.349,20.349,0,0,1-5.921,14.162s-2.776-1.079-5.012-5.988A1.524,1.524,0,0,1,1396.914,2655.059Z" transform="translate(-1393.579 -2587.453)" fill="url(#linear-gradient-22)"/>
        </g>
      </g>
      <path id="Path_2127" data-name="Path 2127" d="M1803.414,633.01c-4.794-3.335-8.962-3.269-11.9-2.4a5.852,5.852,0,0,0-4.157,6.153l1.265,13.811,15.057,1.336S1812.815,639.55,1803.414,633.01Zm-6.622,11.142a3.754,3.754,0,1,1,3.755-3.755A3.755,3.755,0,0,1,1796.792,644.152Z" transform="translate(-1713.225 -630.103)" fill="url(#linear-gradient-23)"/>
      <path id="Path_2128" data-name="Path 2128" d="M1806.566,662.618a.363.363,0,0,1-.361-.33l-.2-2.2a.363.363,0,1,1,.724-.066l.2,2.2a.364.364,0,0,1-.329.4Zm-.395-4.31a.363.363,0,0,1-.361-.33l-.153-1.67a5.587,5.587,0,0,1,3.961-5.861,11.254,11.254,0,0,1,5.5-.226.363.363,0,1,1-.146.712,10.547,10.547,0,0,0-5.152.211,4.858,4.858,0,0,0-3.443,5.1l.153,1.67a.364.364,0,0,1-.329.395Z" transform="translate(-1729.66 -647.96)" fill="#fff"/>
      <path id="Path_2129" data-name="Path 2129" d="M1598.017,820.3v-6.944a4.237,4.237,0,0,1,4.382-4.235l47.875,1.64a4.121,4.121,0,0,1,3.972,3.872l.4,6.672Z" transform="translate(-1543.165 -790.909)" fill="url(#linear-gradient-24)"/>
      <path id="Path_2130" data-name="Path 2130" d="M1752.1,828.449h-2.059a.363.363,0,0,1,0-.727h2.059a.363.363,0,0,1,0,.727Z" transform="translate(-1679.4 -807.617)" fill="#fff"/>
      <path id="Path_2131" data-name="Path 2131" d="M1620.28,834.83a.363.363,0,0,1-.363-.363v-2.809a3.941,3.941,0,0,1,3.936-3.936h7.569a.363.363,0,0,1,0,.727h-7.569a3.213,3.213,0,0,0-3.21,3.209v2.809A.363.363,0,0,1,1620.28,834.83Z" transform="translate(-1562.838 -807.617)" fill="#fff"/>
      <path id="Path_2132" data-name="Path 2132" d="M1404.6,898.322a4.511,4.511,0,0,1,4.506-4.295l83.718,0a6.188,6.188,0,0,1,6.1,5.132l.071.409a5.314,5.314,0,0,1-5.236,6.22h-85.89a3.455,3.455,0,0,1-3.451-3.621Z" transform="translate(-1369.259 -867.175)" fill="url(#linear-gradient-25)"/>
    </g>
    <path id="Path_2133" data-name="Path 2133" d="M2286.513,953.511l-17.421-14.2-17.421,14.2a298.384,298.384,0,0,0,1.3-44.446q-.351-7.728-1.059-14.961a2.205,2.205,0,0,1,2.2-2.416h30.314a2.2,2.2,0,0,1,2.2,2.088q.581,11.1.722,22.961C2287.485,929.626,2287.164,941.9,2286.513,953.511Z" transform="translate(-1684.815 7401.738)" fill="url(#linear-gradient-26)"/>
    <g id="Group_1378" data-name="Group 1378" transform="translate(423.387 8351.208)">
      <path id="Path_2134" data-name="Path 2134" d="M1047.762,1460.177l-1.624,2.057-.006.008a.346.346,0,0,1-.543-.428l.005-.006,1.684-2.031a.314.314,0,0,1,.489.4Z" transform="translate(-1024.753 -1459.661)" fill="#fff"/>
      <path id="Path_2135" data-name="Path 2135" d="M981.462,1532.406l-2.753,4.391-.013.021a.476.476,0,1,1-.806-.505l0-.008,2.863-4.377a.425.425,0,0,1,.716.458Z" transform="translate(-963.942 -1524.404)" fill="#fff"/>
      <path id="Path_2136" data-name="Path 2136" d="M925.764,1631.94l-2.207,4.683-.013.028a.581.581,0,0,1-1.052-.5l0-.009,2.317-4.7a.535.535,0,0,1,.964.464Z" transform="translate(-914.194 -1613.705)" fill="#fff"/>
      <path id="Path_2137" data-name="Path 2137" d="M883.2,1737.949l-1.6,4.915-.012.037a.687.687,0,1,1-1.306-.426l0-.012,1.714-4.956a.641.641,0,0,1,1.214.407Z" transform="translate(-876.292 -1708.853)" fill="#fff"/>
      <path id="Path_2138" data-name="Path 2138" d="M855.4,1849.109l-.956,5.073-.008.045a.765.765,0,0,1-1.5-.283l0-.008,1.028-5.149a.736.736,0,0,1,1.445.28Z" transform="translate(-851.751 -1808.667)" fill="#fff"/>
      <path id="Path_2139" data-name="Path 2139" d="M843.34,1963.951l-.253,5.15,0,.05a.829.829,0,1,1-1.656-.081v-.009l.315-5.245a.8.8,0,0,1,1.6.087Z" transform="translate(-841.427 -1911.85)" fill="#fff"/>
      <path id="Path_2140" data-name="Path 2140" d="M843.754,2080.144l.457,5.134,0,.053a.894.894,0,1,1-1.78.159v-.01l-.41-5.244a.865.865,0,0,1,1.724-.145Z" transform="translate(-841.962 -2016.265)" fill="#fff"/>
      <path id="Path_2141" data-name="Path 2141" d="M857.43,2195.473l1.154,5.02.013.055a.958.958,0,0,1-1.868.43l0-.01-1.123-5.142a.93.93,0,0,1,1.814-.407Z" transform="translate(-854.141 -2119.919)" fill="#fff"/>
      <path id="Path_2142" data-name="Path 2142" d="M886.728,2307.766l1.8,4.824.02.054a1.008,1.008,0,0,1-1.888.7l0,0-1.816-4.942a.994.994,0,1,1,1.867-.686Z" transform="translate(-880.37 -2220.855)" fill="#fff"/>
      <path id="Path_2143" data-name="Path 2143" d="M931.043,2415.5l2.406,4.553.027.051a1.029,1.029,0,1,1-1.819.961l0,0-2.442-4.663a1.019,1.019,0,0,1,1.806-.946Z" transform="translate(-920.176 -2317.728)" fill="#fff"/>
      <path id="Path_2144" data-name="Path 2144" d="M988.864,2516.681l2.959,4.215.033.047a1.05,1.05,0,0,1-1.719,1.207l0,0-3.009-4.319a1.041,1.041,0,1,1,1.708-1.19Z" transform="translate(-972.135 -2408.707)" fill="#fff"/>
      <path id="Path_2145" data-name="Path 2145" d="M1058.921,2609.789l3.462,3.81.04.044a1.071,1.071,0,1,1-1.586,1.441l0,0-3.527-3.911a1.062,1.062,0,1,1,1.577-1.423Z" transform="translate(-1035.099 -2492.43)" fill="#fff"/>
      <path id="Path_2146" data-name="Path 2146" d="M1140.16,2693.277l3.925,3.322.05.042a1.093,1.093,0,0,1-1.412,1.669l0,0-4.012-3.42a1.083,1.083,0,0,1,1.406-1.649Z" transform="translate(-1108.123 -2567.509)" fill="#fff"/>
      <path id="Path_2147" data-name="Path 2147" d="M1231.838,2765.076l2.176,1.356,1.088.679c.365.223.72.462,1.094.668a1.115,1.115,0,0,1-1.077,1.952l0,0-.029-.017c-.385-.214-.75-.461-1.125-.692l-1.118-.7-2.236-1.406a1.1,1.1,0,0,1,1.176-1.871Z" transform="translate(-1190.548 -2632.087)" fill="#fff"/>
      <path id="Path_2148" data-name="Path 2148" d="M1333.682,2822.04q2.331,1.065,4.733,1.971a1.121,1.121,0,0,1-.788,2.1q-2.474-.926-4.881-2.021a1.127,1.127,0,0,1,.936-2.05Z" transform="translate(-1282.171 -2683.348)" fill="#fff"/>
      <path id="Path_2149" data-name="Path 2149" d="M1443.1,2862.1l4.985,1.236.067.017a1.106,1.106,0,0,1-.53,2.147l-5.124-1.257a1.112,1.112,0,0,1,.53-2.161h0Z" transform="translate(-1380.584 -2719.382)" fill="#fff"/>
      <path id="Path_2150" data-name="Path 2150" d="M1557.594,2885.738l5.115.544.061.007a1.089,1.089,0,0,1-.227,2.166l-5.241-.54a1.1,1.1,0,1,1,.225-2.184h0Z" transform="translate(-1483.589 -2740.646)" fill="#fff"/>
      <path id="Path_2151" data-name="Path 2151" d="M1674.4,2893.349l5.151-.083h.054a1.044,1.044,0,0,1,.042,2.087l-5.26.125a1.064,1.064,0,1,1-.051-2.127h.063Z" transform="translate(-1588.667 -2747.419)" fill="#fff"/>
      <path id="Path_2152" data-name="Path 2152" d="M1791.472,2882.491l5.116-.663.046-.006a1,1,0,0,1,.264,1.979l-5.205.716a1.019,1.019,0,0,1-.278-2.019h.008Z" transform="translate(-1693.98 -2737.133)" fill="#fff"/>
      <path id="Path_2153" data-name="Path 2153" d="M1907.4,2859.754l5.03-1.172.038-.009a.91.91,0,0,1,.426,1.77l-5.091,1.266a.949.949,0,0,1-.458-1.842l.009,0Z" transform="translate(-1798.259 -2716.236)" fill="#fff"/>
      <path id="Path_2154" data-name="Path 2154" d="M2021.031,2825.908l4.9-1.651.032-.01a.823.823,0,0,1,.537,1.556l-4.941,1.746a.862.862,0,1,1-.574-1.625l.008,0Z" transform="translate(-1900.468 -2685.383)" fill="#fff"/>
      <path id="Path_2155" data-name="Path 2155" d="M2131.33,2781.962l4.738-2.088.026-.011a.736.736,0,0,1,.6,1.342l-4.76,2.181a.774.774,0,1,1-.645-1.407l.006,0Z" transform="translate(-1999.664 -2645.498)" fill="#fff"/>
      <path id="Path_2156" data-name="Path 2156" d="M2237.78,2729.265l4.561-2.465.019-.01a.6.6,0,0,1,.585,1.052l-4.54,2.6a.665.665,0,1,1-.66-1.154l.011-.007Z" transform="translate(-2095.392 -2597.815)" fill="#fff"/>
      <path id="Path_2157" data-name="Path 2157" d="M2339.98,2668.293l4.35-2.831.013-.009a.459.459,0,0,1,.51.763l-4.308,2.954a.522.522,0,1,1-.59-.86l.008-.006Z" transform="translate(-2187.3 -2542.717)" fill="#fff"/>
      <path id="Path_2158" data-name="Path 2158" d="M2437.5,2613.819l2.1-1.575,0,0a.314.314,0,0,1,.385.5l-2.059,1.649a.357.357,0,1,1-.446-.557l.008-.006Z" transform="translate(-2274.995 -2494.929)" fill="#fff"/>
    </g>
  </g>
</svg>
